<?xml version="1.0" standalone="no"?>
<!DOCTYPE svg PUBLIC "-//W3C//DTD SVG 20010904//EN"
 "http://www.w3.org/TR/2001/REC-SVG-20010904/DTD/svg10.dtd">
<svg version="1.0" xmlns="http://www.w3.org/2000/svg"
 width="566.000000pt" height="566.000000pt" viewBox="0 0 566.000000 566.000000"
 preserveAspectRatio="xMidYMid meet">
<metadata>
Created by potrace 1.11, written by Peter Selinger 2001-2013
</metadata>
<g transform="translate(0.000000,566.000000) scale(0.100000,-0.100000)"
fill="#000000" stroke="none">
<path d="M2480 5394 c-260 -31 -519 -109 -775 -234 -265 -129 -452 -266 -685
-500 -224 -225 -354 -406 -485 -675 -113 -232 -182 -450 -222 -705 -26 -166
-26 -645 0 -810 42 -261 112 -481 232 -725 339 -688 1046 -1233 1764 -1361
262 -46 601 -58 831 -30 400 50 749 177 1064 387 176 117 278 201 421 344 417
419 659 922 725 1510 15 133 12 452 -5 597 -66 565 -316 1073 -730 1483 -419
416 -904 654 -1465 720 -156 18 -512 18 -670 -1z m645 -79 c188 -20 302 -45
495 -107 582 -189 1129 -671 1416 -1248 157 -315 231 -622 241 -1007 9 -313
-30 -602 -118 -866 -52 -158 -177 -412 -272 -554 -337 -504 -849 -883 -1390
-1028 -109 -30 -272 -59 -416 -76 -136 -15 -501 -6 -641 15 -545 86 -997 324
-1392 734 -374 389 -583 816 -660 1347 -20 142 -17 590 6 740 79 524 300 950
695 1346 228 228 438 378 697 500 259 122 482 181 814 212 99 10 402 5 525 -8z"/>
<path d="M1291 4372 c-72 -26 -102 -50 -128 -102 -43 -83 -27 -178 41 -238 50
-43 90 -63 231 -110 152 -50 210 -78 236 -110 56 -71 -46 -155 -203 -168 -125
-10 -186 28 -202 125 -3 22 -13 47 -22 55 -24 24 -71 20 -89 -8 -14 -21 -14
-29 0 -81 35 -137 104 -193 249 -202 199 -13 367 77 397 213 11 48 10 56 -12
101 -25 51 -87 96 -173 128 -23 8 -98 35 -167 60 -136 50 -186 83 -195 131 -4
24 0 37 21 62 34 41 90 56 178 48 82 -8 121 -23 170 -66 29 -25 37 -40 37 -65
0 -53 51 -79 91 -46 19 15 23 27 21 62 -5 84 -74 158 -184 201 -78 30 -225 35
-297 10z"/>
<path d="M4412 4374 c-20 -14 -22 -23 -22 -126 0 -110 0 -110 -22 -103 -13 4
-62 9 -110 12 -76 5 -91 3 -133 -18 -56 -28 -109 -84 -138 -147 -17 -38 -21
-65 -21 -147 0 -113 17 -164 75 -229 51 -59 101 -80 189 -81 69 0 95 7 162 43
3 1 9 -6 13 -17 9 -29 49 -37 81 -16 l26 17 -3 395 -4 395 -24 19 c-28 23 -40
24 -69 3z m-57 -360 l36 -27 -3 -135 -3 -135 -38 -30 c-50 -41 -144 -49 -193
-19 -73 46 -100 200 -51 292 48 90 170 117 252 54z"/>
<path d="M1951 4142 c-5 -10 -11 -188 -12 -420 -3 -387 -2 -403 17 -417 25
-19 44 -19 72 1 21 14 22 22 22 140 0 68 2 124 4 124 2 0 25 -10 52 -21 39
-18 59 -20 110 -16 146 14 231 87 268 231 36 137 -44 325 -159 377 -61 28
-159 25 -221 -6 l-49 -25 -18 25 c-22 30 -71 34 -86 7z m334 -112 c44 -27 86
-108 92 -180 5 -47 1 -67 -17 -104 -53 -111 -208 -131 -277 -37 -21 27 -23 42
-23 139 0 104 1 111 26 135 34 34 102 67 138 67 16 0 43 -9 61 -20z"/>
<path d="M3317 4142 c-15 -16 -17 -51 -17 -283 0 -145 3 -274 6 -285 3 -12 17
-28 31 -35 21 -11 29 -11 51 2 l27 15 3 194 3 195 60 44 c98 71 166 76 206 14
16 -24 18 -52 18 -236 0 -195 1 -210 19 -223 25 -18 46 -17 70 1 22 17 34 116
35 280 1 173 -37 273 -121 316 -68 35 -181 19 -278 -38 -3 -2 -13 11 -22 27
-20 35 -65 41 -91 12z"/>
<path d="M2763 4120 c-119 -59 -177 -163 -171 -306 3 -69 7 -88 33 -129 64
-104 166 -150 330 -150 82 0 109 4 147 22 66 30 78 84 26 117 -12 7 -37 4 -90
-13 -69 -22 -80 -22 -146 -11 -80 13 -141 50 -167 100 l-16 30 219 0 c237 0
278 7 288 46 15 59 -28 167 -92 231 -66 65 -115 86 -214 90 -78 3 -90 1 -147
-27z m245 -113 c28 -19 82 -86 82 -102 0 -3 -83 -5 -185 -5 -102 0 -185 4
-185 8 0 24 66 96 103 113 53 25 136 19 185 -14z"/>
<path d="M2030 3104 c-30 -8 -73 -25 -95 -39 -58 -34 -132 -117 -163 -183
l-27 -57 0 -795 0 -795 31 -65 c39 -82 108 -151 193 -193 l66 -32 795 0 795 0
66 32 c85 42 154 111 193 193 l31 65 0 795 0 795 -33 67 c-41 84 -128 167
-209 200 l-58 23 -765 2 c-650 2 -773 0 -820 -13z m942 -355 c41 -22 48 -64
48 -304 l0 -225 218 0 c119 0 234 -5 254 -10 61 -17 68 -37 68 -182 0 -120 -1
-128 -24 -155 l-24 -28 -246 -3 -246 -3 0 -229 c0 -126 -4 -240 -10 -254 -5
-14 -24 -35 -42 -46 -29 -18 -47 -20 -150 -18 -113 3 -119 4 -145 31 l-28 27
-3 245 -3 245 -237 0 c-264 0 -271 2 -298 66 -21 50 -19 210 4 254 26 53 55
59 310 59 l222 1 0 230 c0 242 5 275 47 299 24 14 259 14 285 0z"/>
</g>
</svg>
